<?xml version="1.0" standalone="no"?>
<!DOCTYPE svg PUBLIC "-//W3C//DTD SVG 20010904//EN"
 "http://www.w3.org/TR/2001/REC-SVG-20010904/DTD/svg10.dtd">
<svg version="1.0" xmlns="http://www.w3.org/2000/svg"
 width="512.000000pt" height="512.000000pt" viewBox="0 0 512.000000 512.000000"
 preserveAspectRatio="xMidYMid meet">

<g transform="translate(0.000000,512.000000) scale(0.100000,-0.100000)"
fill="#000000" stroke="none">
<path d="M415 4786 c-37 -16 -70 -52 -84 -89 -8 -20 -11 -668 -11 -2138 0
-1759 2 -2115 14 -2142 17 -42 68 -85 109 -92 18 -3 297 -4 621 -3 l588 3
-198 105 c-214 113 -262 150 -304 235 l-25 50 0 530 0 530 81 46 c305 175 768
407 827 415 l47 7 0 563 0 564 39 25 c69 43 384 211 614 327 l222 112 85 1
c83 0 88 -2 203 -57 l118 -57 -3 489 c-3 476 -4 489 -24 516 -11 15 -33 37
-48 48 -26 20 -40 21 -343 21 l-317 0 -76 -304 c-68 -271 -79 -306 -104 -327
l-27 -24 -579 0 -579 0 -27 24 c-25 21 -36 56 -104 327 l-76 304 -305 2 c-236
2 -311 -1 -334 -11z m696 -1147 c67 -36 98 -68 137 -143 22 -43 26 -64 26
-136 1 -78 -2 -90 -33 -148 -38 -70 -70 -100 -145 -140 -43 -22 -64 -26 -136
-26 -72 0 -93 4 -136 26 -75 40 -107 70 -145 140 -31 58 -34 70 -33 148 0 100
24 160 89 225 100 100 249 121 376 54z m0 -960 c67 -36 98 -68 137 -143 22
-43 26 -64 26 -136 1 -78 -2 -90 -33 -148 -38 -70 -70 -100 -145 -140 -43 -22
-64 -26 -136 -26 -72 0 -93 4 -136 26 -75 40 -107 70 -145 140 -31 58 -34 70
-33 148 0 100 24 160 89 225 100 100 249 121 376 54z"/>
<path d="M1220 4795 c0 -3 28 -115 61 -250 l61 -245 498 0 498 0 61 245 c33
135 61 247 61 250 0 3 -279 5 -620 5 -341 0 -620 -2 -620 -5z"/>
<path d="M2662 3509 c-185 -95 -339 -173 -341 -175 -2 -2 159 -84 358 -183
l361 -181 362 181 361 181 -144 75 c-374 195 -540 273 -580 273 -32 0 -109
-35 -377 -171z"/>
<path d="M2240 2780 c0 -440 1 -452 51 -496 13 -11 146 -85 294 -164 149 -78
294 -156 323 -172 l52 -29 0 455 0 456 -360 180 -360 180 0 -410z"/>
<path d="M3478 3009 l-358 -179 0 -456 0 -456 63 35 c34 19 182 98 329 177
276 146 312 172 323 233 3 18 4 210 3 428 l-3 397 -357 -179z"/>
<path d="M1702 1909 c-185 -95 -339 -173 -341 -175 -2 -2 159 -84 358 -183
l361 -181 362 181 361 181 -144 75 c-374 195 -540 273 -580 273 -32 0 -109
-35 -377 -171z"/>
<path d="M3622 1909 c-185 -95 -339 -173 -341 -175 -2 -2 159 -84 358 -183
l361 -181 362 181 361 181 -144 75 c-374 195 -540 273 -580 273 -32 0 -109
-35 -377 -171z"/>
<path d="M1280 1180 c0 -440 1 -452 51 -496 13 -11 146 -85 294 -164 149 -78
294 -156 323 -172 l52 -29 0 455 0 456 -360 180 -360 180 0 -410z"/>
<path d="M2518 1409 l-358 -179 0 -456 0 -456 63 35 c34 19 182 98 329 177
276 146 312 172 323 233 3 18 4 210 3 428 l-3 397 -357 -179z"/>
<path d="M3200 1180 c0 -440 1 -452 51 -496 13 -11 146 -85 294 -164 149 -78
294 -156 323 -172 l52 -29 0 455 0 456 -360 180 -360 180 0 -410z"/>
<path d="M4438 1409 l-358 -179 0 -456 0 -456 63 35 c34 19 182 98 329 177
276 146 312 172 323 233 3 18 4 210 3 428 l-3 397 -357 -179z"/>
</g>
</svg>
