<svg width="5000" height="5000" viewBox="0 0 5000 5000" fill="none" xmlns="http://www.w3.org/2000/svg">
<rect width="5000" height="5000" rx="2500" fill="#DFE6EC"/>
<path d="M3517.6 671.127C3509.82 689.362 3498.56 700.649 3488.18 701.518C3441.45 704.991 3397.31 724.962 3356.63 762.299C3313.36 801.372 3310.77 802.241 3299.52 786.611C3288.27 770.982 3287.4 772.719 3292.59 798.768C3297.79 822.212 3295.19 830.895 3283.07 840.446C3257.98 857.812 3252.78 854.339 3251.92 818.738C3251.05 788.348 3250.19 788.348 3243.26 829.158C3238.94 855.207 3228.55 880.388 3214.7 894.281C3202.59 907.305 3192.2 920.33 3192.2 922.935C3192.2 925.54 3185.28 942.906 3177.49 961.14C3169.7 980.243 3163.64 1000.21 3165.38 1005.42C3166.24 1011.5 3163.64 1016.71 3159.32 1016.71C3154.99 1016.71 3153.26 1027.13 3154.99 1040.16C3157.59 1054.05 3154.99 1074.89 3149.8 1087.91C3140.28 1113.09 3139.41 1113.09 2997.48 1147.82C2883.25 1175.61 2827.86 1194.71 2735.26 1239C2554.38 1324.96 2430.63 1403.11 2307.74 1506.43C2290.43 1521.19 2250.62 1555.06 2218.6 1581.11C2186.58 1607.16 2135.52 1650.57 2106.09 1676.62C2075.8 1702.67 2029.93 1742.61 2004.84 1764.32C1979.74 1786.03 1924.35 1832.91 1881.08 1867.65C1838.68 1902.38 1783.29 1949.27 1759.92 1970.97C1735.69 1992.68 1688.96 2032.62 1656.07 2058.67C1623.18 2084.72 1568.66 2131.61 1534.91 2162.87C1500.29 2194.13 1450.1 2236.68 1422.4 2258.38C1394.71 2280.09 1356.63 2311.35 1336.73 2328.72C1316.82 2346.08 1259.7 2394.71 1209.51 2437.25C1158.45 2479.8 1059.79 2563.16 989.691 2623.07C919.591 2682.98 849.492 2741.16 834.779 2753.31C819.202 2765.47 774.2 2802.81 734.39 2836.67C540.534 3000.78 479.954 3053.75 471.3 3067.64C457.453 3090.22 498.128 3136.24 816.606 3463.59C883.243 3532.18 968.921 3612.06 1007 3640.72C1077.96 3694.55 1239.8 3778.78 1301.24 3793.54C1320.28 3798.75 1352.31 3806.56 1371.34 3811.77C1391.25 3816.98 1424.14 3821.33 1444.91 3821.33C1465.68 3821.33 1506.35 3827.4 1534.91 3834.35C1597.22 3849.11 2034.26 3852.58 2071.48 3838.69C2083.59 3834.35 2118.21 3830.01 2147.63 3829.14C2177.06 3829.14 2216 3824.8 2233.31 3820.46C2264.47 3812.64 2333.7 3801.35 2456.59 3785.73C2492.07 3781.38 2550.92 3773.57 2586.4 3769.23C2621.89 3764.02 2684.2 3756.2 2724.87 3752.73C2765.55 3748.39 2818.34 3741.44 2841.71 3736.23C2894.5 3724.94 3031.23 3708.45 3074.51 3708.45C3091.81 3708.45 3105.66 3704.97 3105.66 3700.63C3105.66 3696.29 3034.7 3691.08 2948.15 3687.61C2593.33 3675.45 2072.34 3638.98 2006.57 3620.75C1990.12 3616.41 1963.3 3612.93 1946.85 3612.93C1918.29 3612.93 1898.39 3609.46 1742.61 3581.67C1548.76 3546.07 1395.58 3486.16 1323.75 3419.3C1262.3 3360.26 1184.41 3255.19 1184.41 3230.01C1184.41 3202.23 1211.24 3182.26 1234.61 3192.68C1250.18 3198.75 1329.8 3208.3 1466.54 3221.33C1509.81 3224.8 1550.49 3231.75 1557.41 3236.09C1585.11 3253.46 2090.51 3272.56 2763.82 3282.11C3282.21 3289.92 3420.68 3296 3458.76 3316.84C3468.27 3322.05 3487.31 3326.39 3501.16 3326.39C3530.59 3326.39 3585.97 3345.5 3640.49 3374.15C3765.98 3440.14 3827.43 3599.04 3813.58 3821.33C3804.93 3954.18 3795.41 4040.14 3786.75 4055.77C3782.42 4062.71 3787.62 4059.24 3797.14 4047.08C3816.18 4023.64 3941.66 3816.12 3961.57 3773.57C3968.49 3758.81 4039.46 3613.8 4119.94 3449.69C4199.56 3286.45 4265.33 3151 4265.33 3149.26C4265.33 3147.52 4286.1 3101.5 4311.2 3047.67C4359.66 2944.34 4472.17 2669.96 4490.34 2610.04C4496.4 2590.94 4504.19 2567.5 4507.65 2557.95C4518.04 2529.29 4531.89 2465.04 4537.94 2419.02C4553.52 2300.06 4479.96 2251.44 4339.76 2287.9C4235.04 2315.69 3926.95 2458.09 3689.82 2589.21C3628.38 2623.07 3536.64 2673.43 3486.45 2701.22C3319.42 2792.39 3076.24 2931.32 2979.31 2990.36C2925.65 3022.49 2872 3048.54 2859.88 3048.54C2831.32 3048.54 2815.74 3024.22 2794.11 2948.68C2784.59 2916.56 2748.24 2817.57 2711.89 2729C2676.41 2639.57 2646.98 2560.55 2646.98 2552.74C2646.98 2545.79 2643.52 2536.24 2639.2 2531.03C2627.94 2519.74 2603.71 2429.44 2603.71 2400.78C2603.71 2332.19 2706.7 2233.2 3143.74 1880.67C3221.63 1818.15 3254.51 1791.24 3368.75 1695.72C3426.73 1647.1 3437.98 1641.02 3460.49 1646.23C3475.2 1649.7 3486.45 1654.91 3486.45 1658.39C3486.45 1660.99 3501.16 1662.73 3519.34 1660.99C3536.64 1659.25 3563.47 1662.73 3577.32 1667.94C3602.42 1677.49 3603.28 1678.36 3585.97 1691.38C3569.53 1704.41 3569.53 1704.41 3590.3 1697.46C3602.42 1693.99 3647.42 1690.51 3689.82 1690.51C3739.15 1689.65 3772.04 1685.3 3778.96 1678.36C3795.41 1662.73 3809.25 1665.33 3803.2 1682.7C3799.73 1692.25 3804.93 1688.78 3817.04 1675.75C3831.75 1658.39 3850.79 1649.7 3893.2 1641.89C3924.36 1636.68 3961.57 1624.52 3976.28 1615.84C3997.05 1603.68 4006.57 1602.81 4014.36 1609.76C4021.28 1617.58 4023.01 1616.71 4018.69 1607.16C4016.09 1598.47 4032.53 1575.9 4066.29 1542.03C4118.21 1491.67 4119.94 1490.8 4132.92 1507.3C4145.9 1523.8 4145.9 1523.8 4140.71 1502.09C4137.25 1484.73 4142.44 1474.31 4166.67 1449.99C4202.16 1416.13 4222.06 1376.19 4222.06 1337.98C4222.06 1312.8 4223.79 1311.93 4259.28 1311.07C4289.57 1311.07 4293.03 1309.33 4278.31 1302.38C4253.22 1290.23 4235.91 1259.84 4247.16 1248.55C4253.22 1242.47 4260.14 1243.34 4270.53 1252.02C4284.37 1262.44 4285.24 1262.44 4278.31 1251.15C4270.53 1239 4255.81 1141.75 4254.95 1097.46C4254.95 1087.04 4249.76 1076.62 4243.7 1074.02C4230.72 1069.68 4209.08 1009.76 4216.87 1001.95C4219.47 998.477 4232.45 1001.08 4245.43 1007.16L4269.66 1017.58L4248.02 999.345C4235.91 989.794 4223.79 981.979 4220.33 981.979C4216.87 981.979 4206.48 965.481 4197.83 944.642C4188.31 924.671 4172.73 900.359 4162.35 891.676C4149.37 880.388 4146.77 871.705 4152.83 864.758C4159.75 856.944 4156.29 855.207 4141.58 857.812C4125.13 861.285 4106.96 849.129 4058.5 802.241C4023.88 770.114 3984.93 737.986 3972.82 731.04C3959.84 724.094 3947.72 716.279 3945.13 712.806C3942.53 709.332 3910.51 704.991 3873.29 702.386C3796.27 697.176 3783.29 689.362 3798 659.839L3807.52 639L3791.08 658.103C3778.1 672.864 3765.98 677.205 3740.88 675.469C3721.85 674.6 3704.54 670.259 3701.94 666.786C3699.34 663.312 3668.19 666.786 3633.57 674.6L3569.53 688.493L3549.63 665.049L3529.72 641.605L3517.6 671.127ZM3547.03 683.283C3547.03 690.23 3540.97 695.44 3534.05 695.44C3519.34 695.44 3518.47 693.703 3526.26 674.6C3532.32 658.971 3547.03 664.181 3547.03 683.283ZM3555.68 712.806C3555.68 717.147 3552.22 721.489 3547.03 721.489C3542.7 721.489 3538.37 717.147 3538.37 712.806C3538.37 707.596 3542.7 704.123 3547.03 704.123C3552.22 704.123 3555.68 707.596 3555.68 712.806ZM3515.87 729.303C3521.07 737.986 3502.03 747.538 3480.39 747.538C3469.14 747.538 3469.14 744.933 3477.79 734.513C3489.91 719.752 3508.95 717.147 3515.87 729.303ZM3826.56 744.933C3862.91 747.538 3893.2 753.616 3893.2 757.957C3893.2 762.299 3888.87 774.455 3883.68 784.875C3873.29 803.109 3874.16 803.109 3890.6 788.348C3900.12 780.533 3912.24 773.587 3917.43 773.587C3929.55 773.587 4057.63 876.046 4057.63 885.598C4057.63 889.939 4065.42 895.149 4075.8 897.754C4089.65 901.227 4092.25 907.305 4087.92 920.33C4083.59 935.091 4086.19 938.564 4100.04 938.564C4109.56 938.564 4123.4 947.247 4129.46 957.667C4148.5 988.926 4171.87 1086.18 4166.67 1108.75C4161.48 1127.85 4163.21 1129.59 4183.12 1124.38C4202.16 1120.04 4204.75 1121.78 4204.75 1140.88C4204.75 1171.27 4187.44 1179.95 4180.52 1154.77C4177.06 1141.75 4172.73 1163.45 4170.14 1212.08C4166.67 1263.31 4159.75 1302.38 4148.5 1324.96C4133.79 1356.22 4074.94 1419.6 3972.82 1515.12L3936.47 1549.85L3913.97 1528.14C3890.6 1507.3 3889.74 1508.17 3907.05 1549.85C3912.24 1564.61 3867.24 1590.66 3792.81 1615.84C3747.81 1631.47 3746.94 1631.47 3733.1 1613.23C3723.58 1601.08 3720.98 1599.34 3723.58 1608.89C3729.63 1629.73 3721.85 1632.34 3691.56 1622.79C3675.98 1617.58 3632.71 1611.5 3594.63 1608.02C3532.32 1603.68 3525.39 1601.08 3522.8 1584.58C3521.07 1571.56 3530.59 1557.66 3557.41 1536.82C3578.18 1520.33 3649.15 1456.94 3715.79 1395.29C3782.42 1333.64 3860.31 1263.31 3888.87 1239.86C3968.49 1173.87 4050.71 1093.12 4044.65 1087.04C4041.19 1084.44 3892.33 1080.1 3713.19 1079.23C3473.47 1076.62 3371.35 1078.36 3328.08 1087.04C3281.34 1095.73 3264.9 1095.73 3251.92 1087.91C3243.26 1081.83 3235.47 1080.97 3235.47 1085.31C3235.47 1094.86 3202.59 1104.41 3197.4 1096.6C3192.2 1087.04 3229.42 1014.11 3241.53 1009.76C3248.46 1008.03 3251.05 1016.71 3248.46 1040.16C3244.13 1072.28 3244.99 1072.28 3251.92 1045.37C3263.17 1002.82 3277.88 988.057 3294.32 1001.08C3305.57 1010.63 3307.31 1009.76 3302.11 996.74C3297.79 984.584 3305.57 969.823 3328.08 942.906C3346.25 922.935 3369.62 888.203 3380.87 866.495C3411.16 805.714 3478.66 761.431 3464.81 810.055C3460.49 827.422 3461.35 826.553 3472.6 807.451C3484.72 785.743 3524.53 764.904 3553.09 764.904C3560.01 764.904 3572.13 758.826 3579.05 751.011C3587.7 742.328 3601.55 738.855 3615.4 741.46C3627.51 744.065 3655.21 742.328 3676.84 738.855C3698.48 734.513 3725.31 733.645 3737.42 735.382C3749.54 737.118 3789.35 741.46 3826.56 744.933ZM3987.53 764.035C4019.55 789.216 4030.8 808.319 4014.36 808.319C4005.71 808.319 3945.13 764.035 3914.84 736.25C3894.07 716.279 3960.7 742.328 3987.53 764.035ZM3443.18 747.538C3443.18 751.879 3439.72 756.221 3434.52 756.221C3430.2 756.221 3425.87 751.879 3425.87 747.538C3425.87 742.328 3430.2 738.855 3434.52 738.855C3439.72 738.855 3443.18 742.328 3443.18 747.538ZM4049.84 831.763C4061.09 845.656 4060.23 846.524 4047.25 835.236C4032.53 823.948 4028.21 817.002 4035.13 817.002C4036.86 817.002 4043.78 823.948 4049.84 831.763ZM3359.23 839.578C3367.02 847.392 3326.34 921.198 3296.05 953.325C3271.82 980.243 3244.13 991.531 3244.13 974.164C3244.13 916.857 3332.4 813.529 3359.23 839.578ZM4159.75 925.54C4164.94 936.828 4171.87 960.272 4174.46 979.374C4179.66 1008.9 4177.93 1007.16 4153.69 957.667C4138.98 927.276 4126.87 900.359 4126.87 898.622C4126.87 888.203 4151.96 908.174 4159.75 925.54ZM3222.49 955.93C3218.17 969.823 3213.84 972.428 3206.92 965.481C3200.86 959.403 3201.72 952.457 3209.51 942.906C3215.57 935.959 3222.49 931.618 3224.22 933.354C3226.82 935.091 3225.96 945.511 3222.49 955.93ZM4173.6 1335.38C4170.14 1349.27 4164.94 1365.77 4160.62 1372.71C4148.5 1397.03 4057.63 1481.25 4057.63 1468.23C4057.63 1454.34 4091.38 1416.13 4104.36 1416.13C4109.56 1416.13 4125.13 1392.69 4139.85 1364.03C4166.67 1309.33 4183.12 1295.44 4173.6 1335.38ZM4143.31 1447.39C4097.44 1495.15 4066.29 1518.59 4066.29 1505.57C4066.29 1496.88 4181.39 1390.08 4186.58 1394.42C4188.31 1397.03 4169.27 1420.47 4143.31 1447.39ZM4048.98 1502.09C4035.13 1529.88 3979.74 1572.42 3959.84 1572.42C3944.26 1571.56 3949.45 1563.74 3991.86 1524.67C4042.05 1479.52 4066.29 1469.96 4048.98 1502.09ZM4005.71 1575.9C4005.71 1577.63 3991.86 1588.05 3974.55 1598.47C3953.78 1611.5 3926.09 1619.31 3890.6 1621.05C3834.35 1624.52 3834.35 1625.39 3897.53 1597.61C3928.68 1583.71 4005.71 1568.95 4005.71 1575.9ZM3492.51 1621.05C3489.91 1623.65 3482.12 1624.52 3476.06 1621.92C3469.14 1619.31 3471.74 1616.71 3481.26 1616.71C3490.78 1615.84 3495.97 1618.44 3492.51 1621.05ZM3659.53 1632.34C3676.84 1636.68 3678.57 1639.28 3667.32 1643.63C3652.61 1648.83 3592.9 1639.28 3584.24 1629.73C3577.32 1622.79 3632.71 1624.52 3659.53 1632.34Z" fill="black"/>
</svg>
