<?xml version="1.0" standalone="no"?>
<!DOCTYPE svg PUBLIC "-//W3C//DTD SVG 20010904//EN"
 "http://www.w3.org/TR/2001/REC-SVG-20010904/DTD/svg10.dtd">
<svg version="1.0" xmlns="http://www.w3.org/2000/svg"
 width="475.000000pt" height="401.000000pt" viewBox="0 0 475.000000 401.000000"
 preserveAspectRatio="xMidYMid meet">

<g transform="translate(0.000000,401.000000) scale(0.100000,-0.100000)"
fill="#000000" stroke="none">
<path d="M3546 3938 c-9 -21 -22 -34 -34 -35 -54 -4 -105 -27 -152 -70 -50
-45 -53 -46 -66 -28 -13 18 -14 16 -8 -14 6 -27 3 -37 -11 -48 -29 -20 -35
-16 -36 25 -1 35 -2 35 -10 -12 -5 -30 -17 -59 -33 -75 -14 -15 -26 -30 -26
-33 0 -3 -8 -23 -17 -44 -9 -22 -16 -45 -14 -51 1 -7 -2 -13 -7 -13 -5 0 -7
-12 -5 -27 3 -16 0 -40 -6 -55 -11 -29 -12 -29 -176 -69 -132 -32 -196 -54
-303 -105 -209 -99 -352 -189 -494 -308 -20 -17 -66 -56 -103 -86 -37 -30 -96
-80 -130 -110 -35 -30 -88 -76 -117 -101 -29 -25 -93 -79 -143 -119 -49 -40
-113 -94 -140 -119 -28 -25 -82 -71 -120 -101 -38 -30 -101 -84 -140 -120 -40
-36 -98 -85 -130 -110 -32 -25 -76 -61 -99 -81 -23 -20 -89 -76 -147 -125 -59
-49 -173 -145 -254 -214 -81 -69 -162 -136 -179 -150 -18 -14 -70 -57 -116
-96 -224 -189 -294 -250 -304 -266 -16 -26 31 -79 399 -456 77 -79 176 -171
220 -204 82 -62 269 -159 340 -176 22 -6 59 -15 81 -21 23 -6 61 -11 85 -11
24 0 71 -7 104 -15 72 -17 577 -21 620 -5 14 5 54 10 88 11 34 0 79 5 99 10
36 9 116 22 258 40 41 5 109 14 150 19 41 6 113 15 160 19 47 5 108 13 135 19
61 13 219 32 269 32 20 0 36 4 36 9 0 5 -82 11 -182 15 -410 14 -1012 56
-1088 77 -19 5 -50 9 -69 9 -33 0 -56 4 -236 36 -224 41 -401 110 -484 187
-71 68 -161 189 -161 218 0 32 31 55 58 43 18 -7 110 -18 268 -33 50 -4 97
-12 105 -17 32 -20 616 -42 1394 -53 599 -9 759 -16 803 -40 11 -6 33 -11 49
-11 34 0 98 -22 161 -55 145 -76 216 -259 200 -515 -10 -153 -21 -252 -31
-270 -5 -8 1 -4 12 10 22 27 167 266 190 315 8 17 90 184 183 373 92 188 168
344 168 346 0 2 24 55 53 117 56 119 186 435 207 504 7 22 16 49 20 60 12 33
28 107 35 160 18 137 -67 193 -229 151 -121 -32 -477 -196 -751 -347 -71 -39
-177 -97 -235 -129 -193 -105 -474 -265 -586 -333 -62 -37 -124 -67 -138 -67
-33 0 -51 28 -76 115 -11 37 -53 151 -95 253 -41 103 -75 194 -75 203 0 8 -4
19 -9 25 -13 13 -41 117 -41 150 0 79 119 193 624 599 90 72 128 103 260 213
67 56 80 63 106 57 17 -4 30 -10 30 -14 0 -3 17 -5 38 -3 20 2 51 -2 67 -8 29
-11 30 -12 10 -27 -19 -15 -19 -15 5 -7 14 4 66 8 115 8 57 1 95 6 103 14 19
18 35 15 28 -5 -4 -11 2 -7 16 8 17 20 39 30 88 39 36 6 79 20 96 30 24 14 35
15 44 7 8 -9 10 -8 5 3 -3 10 16 36 55 75 60 58 62 59 77 40 15 -19 15 -19 9
6 -4 20 2 32 30 60 41 39 64 85 64 129 0 29 2 30 43 31 35 0 39 2 22 10 -29
14 -49 49 -36 62 7 7 15 6 27 -4 16 -12 17 -12 9 1 -9 14 -26 126 -27 177 0
12 -6 24 -13 27 -15 5 -40 74 -31 83 3 4 18 1 33 -6 l28 -12 -25 21 c-14 11
-28 20 -32 20 -4 0 -16 19 -26 43 -11 23 -29 51 -41 61 -15 13 -18 23 -11 31
8 9 4 11 -13 8 -19 -4 -40 10 -96 64 -40 37 -85 74 -99 82 -15 8 -29 17 -32
21 -3 4 -40 9 -83 12 -89 6 -104 15 -87 49 l11 24 -19 -22 c-15 -17 -29 -22
-58 -20 -22 1 -42 6 -45 10 -3 4 -39 0 -79 -9 l-74 -16 -23 27 -23 27 -14 -34z
m34 -14 c0 -8 -7 -14 -15 -14 -17 0 -18 2 -9 24 7 18 24 12 24 -10z m10 -34
c0 -5 -4 -10 -10 -10 -5 0 -10 5 -10 10 0 6 5 10 10 10 6 0 10 -4 10 -10z
m-46 -19 c6 -10 -16 -21 -41 -21 -13 0 -13 3 -3 15 14 17 36 20 44 6z m359
-18 c42 -3 77 -10 77 -15 0 -5 -5 -19 -11 -31 -12 -21 -11 -21 8 -4 11 9 25
17 31 17 14 0 162 -118 162 -129 0 -5 9 -11 21 -14 16 -4 19 -11 14 -26 -5
-17 -2 -21 14 -21 11 0 27 -10 34 -22 22 -36 49 -148 43 -174 -6 -22 -4 -24
19 -18 22 5 25 3 25 -19 0 -35 -20 -45 -28 -16 -4 15 -9 -10 -12 -66 -4 -59
-12 -104 -25 -130 -17 -36 -85 -109 -203 -219 l-42 -40 -26 25 c-27 24 -28 23
-8 -25 6 -17 -46 -47 -132 -76 -52 -18 -53 -18 -69 3 -11 14 -14 16 -11 5 7
-24 -2 -27 -37 -16 -18 6 -68 13 -112 17 -72 5 -80 8 -83 27 -2 15 9 31 40 55
24 19 106 92 183 163 77 71 167 152 200 179 92 76 187 169 180 176 -4 3 -176
8 -383 9 -277 3 -395 1 -445 -9 -54 -10 -73 -10 -88 -1 -10 7 -19 8 -19 3 0
-11 -38 -22 -44 -13 -6 11 37 95 51 100 8 2 11 -8 8 -35 -5 -37 -4 -37 4 -6
13 49 30 66 49 51 13 -11 15 -10 9 5 -5 14 4 31 30 62 21 23 48 63 61 88 35
70 113 121 97 65 -5 -20 -4 -19 9 3 14 25 60 49 93 49 8 0 22 7 30 16 10 10
26 14 42 11 14 -3 46 -1 71 3 25 5 56 6 70 4 14 -2 60 -7 103 -11z m186 -22
c37 -29 50 -51 31 -51 -10 0 -80 51 -115 83 -24 23 53 -7 84 -32z m-629 19 c0
-5 -4 -10 -10 -10 -5 0 -10 5 -10 10 0 6 5 10 10 10 6 0 10 -4 10 -10z m701
-97 c13 -16 12 -17 -3 -4 -17 13 -22 21 -14 21 2 0 10 -8 17 -17z m-798 -9 c9
-9 -38 -94 -73 -131 -28 -31 -60 -44 -60 -24 0 66 102 185 133 155z m925 -99
c6 -13 14 -40 17 -62 6 -34 4 -32 -24 25 -17 35 -31 66 -31 68 0 12 29 -11 38
-31z m-1083 -35 c-5 -16 -10 -19 -18 -11 -7 7 -6 15 3 26 7 8 15 13 17 11 3
-2 2 -14 -2 -26z m1099 -437 c-4 -16 -10 -35 -15 -43 -14 -28 -119 -125 -119
-110 0 16 39 60 54 60 6 0 24 27 41 60 31 63 50 79 39 33z m-35 -129 c-53 -55
-89 -82 -89 -67 0 10 133 133 139 128 2 -3 -20 -30 -50 -61z m-109 -63 c-16
-32 -80 -81 -103 -81 -18 1 -12 10 37 55 58 52 86 63 66 26z m-50 -85 c0 -2
-16 -14 -36 -26 -24 -15 -56 -24 -97 -26 -65 -4 -65 -5 8 27 36 16 125 33 125
25z m-593 -52 c-3 -3 -12 -4 -19 -1 -8 3 -5 6 6 6 11 1 17 -2 13 -5z m193 -13
c20 -5 22 -8 9 -13 -17 -6 -86 5 -96 16 -8 8 56 6 87 -3z"/>
</g>
</svg>
